# WaveFront *.obj file (generated by Autodesk ATF)

mtllib basket.mtl

g 솔리드1

v -100.000000 -100.000000 0.000000
v -100.000000 -100.000000 150.000000
v -100.000000 100.000000 0.000000
v -100.000000 100.000000 150.000000
v -90.000000 -90.000000 10.000000
v -90.000000 -90.000000 150.000000
v -90.000000 90.000000 10.000000
v -90.000000 90.000000 150.000000
v 90.000000 -90.000000 10.000000
v 90.000000 -90.000000 150.000000
v 90.000000 90.000000 10.000000
v 90.000000 90.000000 150.000000
v 100.000000 -100.000000 0.000000
v 100.000000 -100.000000 150.000000
v 100.000000 100.000000 0.000000
v 100.000000 100.000000 150.000000
vt 0.000000 0.000000 0.000000
vt 20.000000 0.000000 0.000000
vt 20.000000 15.000000 0.000000
vt 0.000000 15.000000 0.000000
vt 0.000000 0.000000 0.000000
vt 20.000000 0.000000 0.000000
vt 20.000000 15.000000 0.000000
vt 0.000000 15.000000 0.000000
vt 0.000000 0.000000 0.000000
vt 20.000000 0.000000 0.000000
vt 20.000000 15.000000 0.000000
vt 0.000000 15.000000 0.000000
vt 0.000000 0.000000 0.000000
vt 20.000000 0.000000 0.000000
vt 20.000000 15.000000 0.000000
vt 0.000000 15.000000 0.000000
vt 9.000000 9.000000 0.000000
vt 9.000000 -9.000000 0.000000
vt -9.000000 -9.000000 0.000000
vt -9.000000 9.000000 0.000000
vt -10.000000 -10.000000 0.000000
vt 10.000000 -10.000000 0.000000
vt 10.000000 10.000000 0.000000
vt -10.000000 10.000000 0.000000
vt -10.000000 -10.000000 0.000000
vt 10.000000 -10.000000 0.000000
vt 10.000000 10.000000 0.000000
vt -10.000000 10.000000 0.000000
vt -18.000000 0.000000 0.000000
vt -0.000000 0.000000 0.000000
vt -0.000000 14.000000 0.000000
vt -18.000000 14.000000 0.000000
vt -18.000000 0.000000 0.000000
vt -0.000000 0.000000 0.000000
vt -0.000000 14.000000 0.000000
vt -18.000000 14.000000 0.000000
vt -18.000000 0.000000 0.000000
vt -0.000000 0.000000 0.000000
vt -0.000000 14.000000 0.000000
vt -18.000000 14.000000 0.000000
vt -18.000000 0.000000 0.000000
vt -0.000000 0.000000 0.000000
vt -0.000000 14.000000 0.000000
vt -18.000000 14.000000 0.000000
vt -9.000000 -9.000000 0.000000
vt 9.000000 -9.000000 0.000000
vt 9.000000 9.000000 0.000000
vt -9.000000 9.000000 0.000000
vn -0.100000 0.000000 0.000000
vn -0.100000 0.000000 0.000000
vn -0.100000 0.000000 0.000000
vn -0.100000 0.000000 0.000000
vn 0.000000 0.100000 0.000000
vn 0.000000 0.100000 0.000000
vn 0.000000 0.100000 0.000000
vn 0.000000 0.100000 0.000000
vn 0.100000 0.000000 0.000000
vn 0.100000 0.000000 0.000000
vn 0.100000 0.000000 0.000000
vn 0.100000 0.000000 0.000000
vn 0.000000 -0.100000 0.000000
vn 0.000000 -0.100000 0.000000
vn 0.000000 -0.100000 0.000000
vn 0.000000 -0.100000 0.000000
vn 0.000000 0.000000 0.100000
vn 0.000000 0.000000 0.100000
vn 0.000000 0.000000 0.100000
vn 0.000000 0.000000 0.100000
vn 0.000000 0.000000 0.100000
vn 0.000000 0.000000 0.100000
vn 0.000000 0.000000 0.100000
vn 0.000000 0.000000 0.100000
vn 0.000000 0.000000 -0.100000
vn 0.000000 0.000000 -0.100000
vn 0.000000 0.000000 -0.100000
vn 0.000000 0.000000 -0.100000
vn -0.100000 0.000000 0.000000
vn -0.100000 0.000000 0.000000
vn -0.100000 0.000000 0.000000
vn -0.100000 0.000000 0.000000
vn 0.000000 -0.100000 0.000000
vn 0.000000 -0.100000 0.000000
vn 0.000000 -0.100000 0.000000
vn 0.000000 -0.100000 0.000000
vn 0.100000 0.000000 0.000000
vn 0.100000 0.000000 0.000000
vn 0.100000 0.000000 0.000000
vn 0.100000 0.000000 0.000000
vn 0.000000 0.100000 0.000000
vn 0.000000 0.100000 0.000000
vn 0.000000 0.100000 0.000000
vn 0.000000 0.100000 0.000000
vn 0.000000 0.000000 0.100000
vn 0.000000 0.000000 0.100000
vn 0.000000 0.000000 0.100000
vn 0.000000 0.000000 0.100000
usemtl 191,191,191
f 3/1/1 1/2/2 4/4/4
f 4/4/4 1/2/2 2/3/3
f 15/5/5 3/6/6 16/8/8
f 16/8/8 3/6/6 4/7/7
f 13/9/9 15/10/10 14/12/12
f 14/12/12 15/10/10 16/11/11
f 1/13/13 13/14/14 2/16/16
f 2/16/16 13/14/14 14/15/15
f 10/18/18 14/22/22 12/17/17
f 12/17/17 14/22/22 16/23/23
f 12/17/17 16/23/23 4/24/24
f 10/18/18 6/19/19 14/22/22
f 14/22/22 6/19/19 2/21/21
f 2/21/21 6/19/19 8/20/20
f 2/21/21 8/20/20 4/24/24
f 4/24/24 8/20/20 12/17/17
f 13/25/25 1/26/26 15/28/28
f 15/28/28 1/26/26 3/27/27
f 10/29/29 12/30/30 9/32/32
f 9/32/32 12/30/30 11/31/31
f 12/33/33 8/34/34 11/36/36
f 11/36/36 8/34/34 7/35/35
f 8/37/37 6/38/38 7/40/40
f 7/40/40 6/38/38 5/39/39
f 6/41/41 10/42/42 5/44/44
f 5/44/44 10/42/42 9/43/43
f 5/45/45 9/46/46 7/48/48
f 7/48/48 9/46/46 11/47/47
# 16 vertices
# 48 texture params
# 48 normals
# 28 facets

# 1 groups
